<?xml version="1.0" standalone="no"?>
<!DOCTYPE svg PUBLIC "-//W3C//DTD SVG 20010904//EN"
 "http://www.w3.org/TR/2001/REC-SVG-20010904/DTD/svg10.dtd">
<svg version="1.0" xmlns="http://www.w3.org/2000/svg"
 width="260.000000pt" height="260.000000pt" viewBox="0 0 260.000000 260.000000"
 preserveAspectRatio="xMidYMid meet">
<metadata>
Created by potrace 1.11, written by Peter Selinger 2001-2013
</metadata>
<g transform="translate(0.000000,260.000000) scale(0.100000,-0.100000)"
fill="#000000" stroke="none">
<path d="M1335 2395 c1 -14 -2 -28 -8 -32 -6 -3 -7 -1 -3 5 12 20 -10 21 -42
2 -18 -11 -32 -16 -32 -12 0 4 14 15 31 25 18 10 29 21 25 25 -4 3 -10 2 -14
-3 -4 -6 -19 -16 -33 -22 -22 -9 -31 -8 -49 4 -16 11 -21 12 -15 3 6 -10 4
-12 -8 -7 -9 3 -19 1 -23 -5 -5 -7 -2 -8 7 -3 8 5 11 4 6 -1 -5 -5 -14 -9 -20
-9 -7 -1 -11 -7 -9 -15 2 -10 0 -11 -11 -2 -8 7 -17 9 -21 4 -4 -4 -12 1 -17
11 -6 9 -15 17 -22 17 -8 0 -9 -2 -1 -8 6 -4 11 -15 11 -24 0 -12 -4 -15 -12
-8 -7 6 -16 5 -23 -2 -9 -9 -16 -7 -28 8 -11 13 -14 14 -11 3 7 -23 -8 -46
-16 -24 -5 10 -3 14 5 9 6 -4 8 -3 4 4 -7 12 -34 9 -65 -8 -12 -6 -21 -8 -21
-4 0 4 -8 0 -17 -8 -10 -8 -29 -14 -42 -13 -21 2 -22 0 -7 -10 22 -17 20 -28
-3 -16 -14 8 -22 7 -31 -4 -7 -8 -17 -12 -24 -8 -6 4 -5 -1 3 -10 12 -15 12
-19 -4 -31 -25 -18 -54 -9 -50 15 2 11 0 17 -5 14 -9 -6 -8 -24 3 -42 5 -9 3
-11 -6 -7 -8 3 -18 0 -23 -7 -5 -8 -3 -10 7 -4 8 5 5 -1 -5 -13 -21 -25 -36
-31 -16 -7 16 19 1 19 -24 0 -10 -8 -23 -12 -27 -9 -5 3 -5 -6 1 -20 6 -17 6
-27 -2 -32 -7 -4 -8 -3 -4 4 4 7 2 12 -3 12 -10 0 -15 -14 -12 -32 0 -5 -3 -8
-9 -8 -14 0 -12 12 4 36 12 17 13 21 1 21 -8 0 -13 -5 -12 -11 1 -6 -3 -10
-10 -9 -7 2 -10 -6 -8 -18 3 -17 0 -20 -15 -16 -16 4 -18 2 -11 -12 6 -11 4
-23 -6 -36 -13 -16 -15 -17 -10 -2 4 9 2 17 -3 17 -5 0 -7 8 -4 18 5 13 4 14
-4 3 -6 -8 -8 -20 -5 -28 4 -9 0 -11 -11 -7 -9 3 -16 1 -16 -6 0 -6 4 -9 9 -5
5 3 12 1 16 -5 3 -5 -1 -10 -9 -10 -9 0 -16 -5 -16 -11 0 -5 4 -8 8 -5 5 3 9
-1 9 -9 0 -12 -4 -12 -20 2 -11 10 -17 12 -13 6 6 -12 -5 -18 -26 -14 -4 0 -3
-12 2 -27 9 -25 9 -26 -5 -8 -14 18 -15 18 -15 2 0 -9 -4 -15 -8 -12 -4 2 -9
-6 -10 -20 -1 -13 3 -24 9 -24 6 0 3 -7 -5 -16 -9 -8 -13 -20 -10 -26 5 -7 2
-8 -6 -3 -9 6 -12 4 -8 -7 4 -9 0 -15 -8 -15 -16 0 -19 13 -4 22 5 3 14 14 19
24 7 13 6 18 -4 18 -7 0 -11 -7 -7 -15 4 -11 1 -13 -9 -7 -8 4 -11 5 -7 0 11
-12 -13 -37 -26 -28 -7 5 -3 0 8 -10 11 -10 21 -28 22 -40 2 -12 0 -16 -2 -9
-3 6 -11 9 -17 5 -8 -5 -8 -2 0 8 10 13 10 16 -1 16 -15 0 -16 -14 -2 -36 6
-9 5 -12 0 -8 -6 3 -16 2 -23 -2 -10 -7 -11 -13 -1 -31 8 -15 8 -20 1 -16 -6
4 -11 2 -11 -4 0 -6 -5 -8 -10 -5 -6 4 -9 1 -8 -7 2 -7 -1 -12 -7 -11 -12 2
-13 -56 -2 -74 6 -9 3 -11 -10 -6 -16 6 -17 5 -3 -12 14 -17 13 -18 -4 -12
-16 6 -17 5 -6 -8 10 -12 10 -15 -4 -15 -10 0 -15 -4 -11 -10 3 -5 13 -7 23
-4 14 5 14 4 3 -4 -8 -6 -22 -9 -31 -7 -10 2 -16 -4 -17 -17 -2 -20 -1 -20 12
-2 13 18 14 18 13 -1 0 -11 3 -29 7 -40 8 -20 8 -20 -8 0 -8 11 -19 17 -23 12
-4 -4 -2 -7 4 -7 6 0 9 -9 7 -19 -3 -15 1 -18 13 -14 9 3 1 -7 -18 -22 -19
-15 -28 -25 -20 -22 25 8 46 14 38 10 -4 -2 -4 -12 -1 -21 4 -15 3 -15 -6 -2
-8 11 -11 12 -11 2 0 -8 -5 -10 -13 -6 -6 4 -2 -3 11 -15 16 -16 20 -26 13
-35 -7 -9 -5 -20 6 -37 16 -23 16 -23 -2 -9 -17 14 -18 13 -12 -2 4 -13 1 -16
-16 -13 -21 4 -21 4 -3 -10 15 -12 23 -12 35 -3 13 10 14 10 4 -2 -16 -18 -17
-34 -1 -24 7 4 8 3 4 -5 -6 -9 -11 -9 -22 0 -8 6 -17 9 -21 5 -3 -3 -1 -6 5
-6 7 0 12 -5 12 -11 0 -5 -5 -7 -12 -3 -7 4 -8 3 -4 -5 4 -6 13 -8 19 -5 7 4
9 4 5 -1 -4 -4 -2 -15 5 -24 10 -14 10 -14 -4 -3 -14 10 -18 10 -22 -3 -4 -8
-3 -14 1 -14 20 3 32 -2 26 -12 -3 -6 0 -16 7 -21 10 -7 7 -8 -11 -4 -14 3
-19 3 -12 0 10 -5 10 -9 1 -20 -7 -8 -9 -17 -5 -21 3 -3 6 -1 6 6 0 7 5 9 12
5 7 -5 8 -2 3 7 -5 8 -4 11 1 6 5 -5 9 -14 9 -20 0 -7 9 -11 20 -10 19 1 19 1
2 -12 -12 -9 -15 -15 -7 -20 6 -4 9 -13 6 -21 -3 -7 -1 -16 4 -19 5 -3 7 -12
3 -20 -3 -8 1 -15 8 -15 7 0 10 -2 7 -5 -11 -11 -36 7 -33 24 2 10 -3 18 -11
18 -10 0 -11 -4 -3 -14 9 -10 8 -13 -2 -14 -8 0 -4 -5 8 -11 13 -6 23 -20 23
-30 0 -15 5 -18 23 -14 12 3 16 3 9 0 -6 -3 -10 -10 -7 -14 3 -5 0 -12 -6 -16
-7 -4 -9 -3 -6 3 3 5 0 10 -8 10 -11 0 -12 -4 -4 -13 6 -7 18 -10 26 -7 11 4
14 2 9 -5 -3 -6 2 -15 11 -21 10 -6 13 -11 8 -11 -6 0 -11 -12 -10 -27 0 -29
7 -35 22 -19 5 6 2 6 -7 1 -8 -5 -12 -4 -7 0 12 13 38 15 30 2 -3 -6 -7 -23
-7 -38 -1 -23 2 -26 22 -23 20 4 21 2 10 -10 -7 -7 -17 -11 -23 -8 -5 3 -2 -4
8 -15 9 -11 14 -23 10 -27 -5 -4 -3 -7 2 -6 38 8 57 -13 30 -32 -6 -5 -5 -8 3
-8 7 0 17 10 22 22 7 19 8 16 5 -15 -2 -25 0 -35 7 -30 7 4 9 0 5 -10 -3 -9
-3 -16 1 -16 19 3 23 -2 12 -17 -8 -8 -9 -14 -4 -13 22 4 32 -2 37 -22 3 -12
10 -18 16 -14 6 3 14 -1 17 -9 7 -18 34 -22 34 -6 0 6 6 5 14 -2 8 -7 12 -17
9 -22 -3 -4 -8 -3 -12 2 -4 6 -12 7 -20 3 -9 -6 -7 -10 9 -14 12 -3 19 -10 15
-16 -3 -6 -1 -11 5 -11 7 0 10 7 6 15 -6 18 19 21 30 3 4 -6 3 -8 -4 -5 -6 5
-8 -1 -5 -14 3 -11 12 -23 19 -26 8 -3 11 -9 8 -14 -3 -5 0 -8 8 -7 7 2 12 -3
10 -10 -2 -9 2 -11 10 -5 7 4 24 8 38 9 19 1 26 -4 27 -19 2 -18 1 -18 -11 -2
-10 13 -15 15 -20 6 -5 -7 -5 -15 -2 -18 3 -4 6 0 6 8 1 8 7 3 15 -11 8 -14
14 -19 15 -12 0 6 7 12 16 12 10 0 14 -6 11 -14 -4 -10 -1 -13 8 -9 8 3 12 10
9 15 -4 6 5 2 20 -7 30 -20 35 -31 8 -16 -14 7 -21 5 -32 -12 -12 -20 -12 -21
3 -8 9 7 24 11 32 7 9 -3 18 1 21 9 4 8 11 12 16 9 6 -4 6 -9 -2 -14 -10 -6
-10 -12 0 -26 9 -15 10 -16 6 -2 -4 12 -1 15 11 11 11 -5 14 -3 9 6 -6 9 -3 9
13 -1 12 -7 21 -16 21 -20 0 -5 7 -8 17 -8 14 0 14 3 -3 23 -19 22 -19 22 1 6
11 -9 28 -21 38 -26 16 -8 13 -10 -13 -10 -17 0 -35 -4 -40 -9 -6 -6 -2 -10
10 -10 11 0 20 4 20 8 0 4 5 8 11 8 5 0 8 -4 4 -9 -5 -10 42 1 67 14 7 4 2 -3
-12 -16 -14 -13 -19 -19 -11 -14 15 11 15 11 50 -12 13 -8 20 -10 17 -4 -5 7
2 11 16 11 16 0 19 -3 10 -9 -11 -7 -10 -9 3 -14 9 -4 13 -3 10 3 -3 6 -1 10
6 10 8 0 7 5 -2 18 -13 15 -12 16 3 4 13 -10 17 -10 21 0 3 7 4 3 4 -9 -1 -12
-4 -20 -7 -18 -4 2 -7 -2 -7 -8 0 -7 10 -14 21 -15 11 0 16 2 10 6 -7 4 -8 15
-3 27 6 15 8 16 8 4 1 -19 27 -33 36 -19 3 5 15 7 27 5 12 -3 28 1 37 8 12 10
13 9 7 -2 -6 -9 -5 -12 5 -9 8 3 13 11 11 17 -1 8 4 8 18 -1 13 -8 16 -15 8
-19 -7 -4 -16 -5 -20 -3 -4 3 -8 1 -8 -4 0 -5 13 -9 29 -8 16 0 27 4 25 8 -3
5 2 8 11 8 10 0 14 -5 9 -12 -5 -10 -4 -10 6 -1 9 9 19 9 33 2 14 -8 18 -8 13
0 -4 6 -3 11 3 11 5 0 17 3 27 7 10 4 15 2 11 -4 -3 -5 0 -10 8 -10 12 0 12 3
2 16 -10 12 -9 14 7 8 13 -5 17 -3 13 6 -3 8 4 13 22 14 58 2 61 3 54 21 -6
15 -5 15 12 -2 12 -12 21 -14 23 -7 2 6 8 11 13 11 6 0 8 -4 5 -8 -3 -5 1 -9
8 -9 7 0 13 7 12 16 -1 11 6 15 18 13 18 -3 18 -2 6 15 -13 16 -13 16 8 -1 22
-19 22 -19 23 0 1 10 1 22 0 27 0 4 4 7 10 7 6 0 9 -6 6 -14 -3 -8 0 -19 7
-25 10 -9 13 -6 11 13 -2 19 1 23 13 19 10 -4 13 -2 8 5 -5 8 -2 10 8 6 9 -3
13 -10 10 -16 -3 -5 3 -4 15 4 12 7 21 17 21 22 0 4 -8 2 -17 -5 -17 -13 -17
-13 -3 5 14 18 13 18 -10 12 -22 -6 -22 -5 -7 4 15 9 23 8 39 -7 12 -10 18
-13 15 -6 -4 6 -3 14 2 18 6 3 8 13 5 23 -5 14 -4 14 4 3 6 -8 8 -21 5 -30 -3
-12 0 -11 11 3 9 11 16 23 16 28 0 4 6 5 13 2 7 -2 22 4 34 15 11 11 24 17 29
13 4 -4 4 -1 0 6 -6 11 -13 9 -30 -7 -20 -19 -22 -19 -22 -2 0 12 5 17 15 13
8 -3 12 -1 8 4 -3 6 8 11 24 12 22 2 28 -1 23 -10 -4 -7 -3 -10 1 -5 13 11 16
47 5 47 -6 0 -5 6 2 14 11 11 14 11 24 -2 9 -13 12 -13 20 -1 5 8 9 18 9 23 0
5 6 11 14 14 9 3 11 0 6 -9 -5 -8 -4 -11 1 -6 5 5 9 14 9 20 1 7 7 10 15 9 8
-2 12 0 8 3 -4 4 -3 16 3 26 7 15 6 17 -6 13 -8 -3 -13 -10 -10 -14 5 -9 -12
-24 -37 -33 -28 -10 -21 2 8 13 14 6 23 14 19 19 -3 6 4 15 15 21 11 6 19 14
17 18 -2 8 6 12 25 12 7 0 4 -6 -5 -12 -13 -10 -14 -17 -6 -28 9 -13 10 -13 6
2 -3 9 1 19 9 22 8 3 13 11 12 18 -2 7 3 12 10 10 8 -1 11 2 7 8 -5 8 -12 7
-23 -2 -10 -7 -14 -8 -10 -4 4 5 3 15 -3 22 -7 8 -6 14 2 20 7 4 9 3 5 -4 -3
-6 -2 -13 4 -17 6 -3 13 1 16 9 3 9 10 16 15 16 4 0 5 -8 2 -17 -6 -15 -5 -16
9 -3 15 14 14 16 -8 28 -31 17 -31 24 1 12 17 -6 25 -6 25 1 0 6 5 7 12 3 7
-4 8 -3 4 4 -4 6 -14 9 -24 6 -9 -3 -6 2 8 10 l25 16 -27 -4 c-15 -3 -30 -1
-33 3 -2 5 3 8 13 8 40 0 53 4 47 13 -4 6 -2 17 5 25 7 9 8 15 0 20 -5 3 -10
12 -10 18 0 8 3 8 8 2 10 -14 52 -17 52 -4 0 5 -4 8 -9 5 -4 -3 -16 1 -27 8
-17 13 -16 13 9 11 14 -2 26 0 26 3 -1 4 -1 18 0 31 1 24 1 24 24 5 22 -19 22
-19 6 1 -9 11 -14 27 -11 35 4 13 3 13 -15 0 -10 -8 -6 -3 11 12 16 15 34 24
39 21 6 -3 7 -1 3 6 -6 9 -11 9 -21 1 -9 -8 -14 -6 -19 6 -9 24 -7 31 5 14 9
-12 10 -11 6 7 -3 13 -1 25 3 28 5 3 7 14 5 25 -2 13 0 18 7 14 6 -4 9 -1 6 7
-3 8 -11 13 -18 11 -11 -3 -11 0 0 12 7 9 18 16 24 16 7 0 6 -3 -2 -8 -10 -7
-8 -12 6 -25 15 -14 19 -14 19 -2 0 8 -5 11 -10 8 -6 -4 -8 0 -4 9 3 9 -1 27
-8 42 -9 17 -10 28 -3 32 7 4 6 9 -2 14 -9 5 -8 9 2 13 11 4 14 -3 14 -26 -1
-19 5 -32 14 -34 9 -3 11 -1 4 4 -6 4 -10 21 -9 38 1 17 -5 36 -14 43 -9 7
-10 11 -3 7 6 -3 12 0 12 7 0 11 2 10 9 0 7 -11 9 -11 14 1 4 11 -1 14 -19 12
-13 -1 -27 2 -31 8 -3 6 -1 7 5 3 8 -5 12 0 12 13 0 12 4 21 10 21 5 0 7 -7 4
-15 -4 -8 -1 -15 4 -15 20 0 22 19 5 32 -20 15 -30 44 -12 32 9 -5 10 -2 6 10
-6 14 -3 17 10 12 15 -5 14 -3 -2 9 -19 15 -33 71 -15 60 6 -4 7 2 3 11 -5 12
-3 15 6 9 10 -6 10 -2 0 16 -8 13 -14 35 -15 49 -3 41 -4 44 -11 37 -3 -4 -12
-2 -19 4 -10 8 -11 30 -2 68 3 12 -13 51 -22 51 -4 0 -11 8 -15 18 -5 14 -4
15 6 5 7 -7 18 -13 24 -13 5 0 2 5 -7 11 -9 5 -16 15 -14 22 1 6 1 9 -1 5 -8
-15 -19 -8 -20 12 -1 13 2 18 10 13 9 -5 9 -3 0 8 -8 10 -9 19 -3 27 7 9 7 9
-2 2 -16 -13 -38 -13 -38 1 0 5 4 8 9 4 5 -3 13 0 17 6 4 8 3 9 -4 5 -7 -4
-12 -3 -12 3 0 5 6 12 13 14 8 4 9 6 0 6 -6 1 -18 -6 -26 -14 -13 -12 -15 -10
-14 18 1 18 4 34 8 37 4 3 1 11 -7 18 -8 7 -14 8 -14 2 0 -5 -5 -10 -11 -10
-6 0 -8 8 -4 19 3 11 0 23 -6 27 -8 5 -10 3 -4 -7 4 -8 -5 0 -19 16 -14 17
-24 38 -22 48 4 15 2 16 -10 6 -8 -6 -17 -9 -21 -5 -3 3 -1 6 5 6 6 0 9 7 6
15 -4 8 -10 15 -16 15 -5 0 -6 -5 -2 -12 4 -7 3 -8 -4 -4 -6 4 -9 13 -6 21 4
9 -1 13 -19 11 -14 -2 -24 2 -24 10 0 6 6 10 14 7 9 -4 11 0 7 11 -3 9 -10 13
-15 10 -5 -3 -9 2 -9 12 0 11 -6 15 -18 12 -14 -4 -18 1 -19 21 -2 23 -1 24 8
6 l9 -20 -3 20 c-1 11 -8 20 -14 20 -7 0 -21 8 -33 17 -11 10 -20 14 -20 8 0
-5 8 -14 18 -19 10 -6 12 -11 4 -11 -7 0 -10 -5 -6 -11 4 -8 9 -7 15 2 6 10 9
10 9 2 0 -20 -17 -24 -31 -7 -13 15 -17 29 -21 66 -1 9 -6 14 -10 12 -21 -13
-49 -12 -55 2 -3 8 -12 13 -19 10 -13 -5 -19 6 -15 27 1 4 -10 5 -24 3 -17 -3
-28 0 -32 10 -3 7 -9 11 -14 8 -5 -3 -9 -2 -8 3 3 19 -2 23 -19 14 -14 -8 -19
-6 -19 5 0 8 6 13 13 10 8 -3 16 0 20 6 4 6 3 8 -4 4 -5 -3 -12 0 -15 6 -3 10
-7 10 -17 1 -15 -14 -40 -6 -40 13 0 8 -4 15 -10 15 -5 1 -16 2 -22 3 -7 1
-12 8 -10 15 1 7 -2 10 -8 6 -6 -3 -8 -10 -5 -15 3 -4 -2 -10 -10 -13 -10 -4
-12 -1 -8 11 6 15 5 16 -12 2 -11 -9 -16 -10 -11 -2 4 7 2 12 -7 12 -8 0 -19
10 -26 23 -6 12 -9 14 -7 5 6 -21 -4 -23 -23 -5 -9 7 -11 7 -8 1 4 -7 0 -15
-9 -18 -24 -9 -31 -7 -14 4 11 7 7 10 -18 10 -23 0 -31 -4 -26 -12 4 -7 3 -8
-4 -4 -6 4 -8 14 -5 24 5 14 3 15 -8 5 -20 -19 -33 -16 -18 5 11 14 11 15 -1
5 -20 -18 -35 -16 -20 2 7 9 8 15 2 15 -15 0 -22 -26 -10 -38 6 -6 5 -12 -4
-17 -7 -5 -10 -5 -6 0 4 4 0 14 -8 22 -8 8 -12 18 -9 23 3 5 1 11 -4 14 -5 4
-8 -5 -6 -19z m-119 -27 c4 -7 3 -10 -1 -5 -5 4 -18 -1 -29 -10 -21 -18 -21
-18 -2 5 22 26 23 26 32 10z m338 -26 c3 -5 -1 -9 -9 -9 -8 0 -15 4 -15 9 0 4
4 8 9 8 6 0 12 -4 15 -8z m-582 -19 c-6 -3 -10 -8 -7 -13 2 -4 -9 -6 -25 -5
-27 2 -30 0 -25 -19 5 -15 4 -17 -3 -7 -5 7 -14 11 -20 7 -6 -3 -14 -1 -18 5
-4 7 -3 9 3 6 6 -4 16 -1 22 7 7 8 19 13 29 12 9 -2 23 3 30 11 8 8 17 11 21
7 3 -4 0 -9 -7 -11z m682 -9 c3 -7 -2 -10 -15 -7 -22 6 -26 20 -4 20 8 0 16
-6 19 -13z m-804 -53 c0 -4 -7 -8 -15 -8 -16 0 -20 9 -9 20 8 8 24 -1 24 -12z
m1067 -94 c0 -7 -9 -13 -19 -13 -18 0 -18 1 -2 13 10 7 18 13 19 13 1 0 2 -6
2 -13z m-1407 -191 c0 -2 -7 -7 -16 -10 -8 -3 -12 -2 -9 4 6 10 25 14 25 6z
m-41 -57 c-15 -9 -32 -2 -24 11 3 5 13 6 21 3 12 -4 13 -8 3 -14z m1726 -59
c-3 -5 -12 -10 -18 -10 -7 0 -6 4 3 10 19 12 23 12 15 0z m-1820 -118 c-3 -3
-11 0 -18 7 -9 10 -8 11 6 5 10 -3 15 -9 12 -12z m-24 -59 c13 -16 12 -17 -3
-4 -14 11 -18 11 -18 1 0 -8 -3 -11 -6 -7 -5 5 3 27 10 27 2 0 10 -8 17 -17z
m-18 -44 c-8 -8 -13 -7 -18 2 -5 8 -4 10 3 5 7 -4 12 -2 12 5 0 7 3 9 7 6 4
-4 2 -12 -4 -18z m1961 -20 c-3 -5 -11 -9 -17 -8 -9 0 -9 2 0 6 10 3 10 10 2
26 -10 21 -9 21 5 3 9 -10 13 -23 10 -27z m-1992 -96 c-6 -2 -9 -10 -6 -15 4
-7 2 -8 -5 -4 -13 9 -5 26 12 25 9 0 8 -2 -1 -6z m2028 3 c0 -2 -7 -6 -15 -10
-8 -3 -15 -1 -15 4 0 6 7 10 15 10 8 0 15 -2 15 -4z m-6 -37 c-3 -6 0 -15 7
-20 11 -6 11 -10 1 -19 -6 -5 -10 -7 -7 -4 3 4 0 13 -6 20 -10 12 -5 34 7 34
3 0 2 -5 -2 -11z m-69 -607 c-3 -3 -11 0 -18 7 -9 10 -8 11 6 5 10 -3 15 -9
12 -12z m-1820 -163 c-4 -5 -1 -9 6 -9 7 0 9 -3 6 -6 -9 -9 -38 16 -31 27 3 5
10 7 15 3 5 -3 7 -10 4 -15z m70 -89 c4 -11 11 -18 16 -15 5 4 9 4 9 1 0 -17
-20 -12 -34 9 -9 14 -12 25 -7 25 5 0 13 -9 16 -20z m43 -55 c-3 -3 -13 -2
-22 1 -14 5 -15 9 -4 15 13 8 36 -6 26 -16z m38 -37 c0 -15 -2 -16 -16 -3 -9
8 -20 12 -23 8 -4 -3 -7 -2 -7 4 0 6 10 10 23 9 14 0 23 -7 23 -18z m1433 -2
c9 -11 9 -16 -1 -22 -7 -4 -10 -4 -6 1 4 4 3 14 -3 22 -6 7 -9 13 -6 13 2 0
10 -6 16 -14z m-49 -46 c8 -5 11 -10 5 -10 -5 0 -17 5 -25 10 -8 5 -10 10 -5
10 6 0 17 -5 25 -10z m-1260 -60 c7 11 10 12 10 2 0 -7 5 -10 12 -6 6 4 8 3 5
-4 -14 -21 -57 -1 -56 26 0 11 4 9 10 -8 8 -20 12 -22 19 -10z m390 -166 c0
-8 -19 -13 -24 -6 -3 5 1 9 9 9 8 0 15 -2 15 -3z m294 -20 c3 -8 2 -12 -4 -9
-6 3 -10 10 -10 16 0 14 7 11 14 -7z m42 7 c8 7 14 7 14 1 0 -5 -7 -13 -16
-16 -23 -9 -24 -8 -23 12 0 11 2 12 6 4 4 -10 8 -10 19 -1z"/>
<path d="M1210 2407 c0 -2 6 -10 14 -16 11 -9 16 -9 22 1 4 7 4 10 -1 6 -4 -4
-14 -3 -22 3 -7 6 -13 9 -13 6z"/>
<path d="M1107 2374 c2 -7 12 -11 21 -10 21 3 13 20 -10 21 -9 1 -14 -4 -11
-11z"/>
<path d="M1047 2363 c-4 -3 -7 -11 -7 -17 0 -6 5 -5 12 2 6 6 9 14 7 17 -3 3
-9 2 -12 -2z"/>
<path d="M1761 2290 c0 -8 6 -24 14 -34 13 -17 15 -18 15 -3 0 9 -4 17 -9 17
-5 0 -12 8 -14 18 -3 12 -5 13 -6 2z"/>
<path d="M760 2243 c0 -19 17 -24 30 -8 9 10 9 15 1 15 -6 0 -11 -6 -11 -12 0
-9 -4 -8 -10 2 -6 9 -10 10 -10 3z"/>
<path d="M1845 2240 c3 -6 1 -10 -6 -10 -7 0 -10 -3 -6 -6 3 -3 13 -2 22 4 16
8 16 9 1 15 -10 4 -15 3 -11 -3z"/>
<path d="M1867 2203 c4 -11 8 -12 13 -3 6 9 9 9 13 1 4 -8 5 -8 3 0 -1 7 -9
13 -18 15 -11 1 -15 -3 -11 -13z"/>
<path d="M670 2200 c-9 -6 -10 -10 -3 -10 6 0 15 5 18 10 8 12 4 12 -15 0z"/>
<path d="M2070 2064 c0 -5 7 -18 15 -28 8 -11 15 -16 15 -10 0 5 -7 18 -15 28
-8 11 -15 16 -15 10z"/>
<path d="M2130 1960 c0 -6 4 -9 9 -6 5 4 12 1 14 -4 3 -6 4 -5 3 2 -3 15 -26
23 -26 8z"/>
<path d="M2213 1835 c0 -8 4 -12 9 -9 4 3 8 9 8 15 0 5 -4 9 -8 9 -5 0 -9 -7
-9 -15z"/>
<path d="M2305 1560 c3 -5 8 -10 11 -10 2 0 4 5 4 10 0 6 -5 10 -11 10 -5 0
-7 -4 -4 -10z"/>
<path d="M2355 1411 c-3 -5 -2 -12 3 -15 5 -3 9 1 9 9 0 17 -3 19 -12 6z"/>
<path d="M235 1360 c-4 -6 1 -7 12 -3 17 6 17 5 0 -15 -11 -11 -16 -26 -12
-32 9 -14 28 -1 21 16 -3 7 -1 16 5 19 10 7 3 25 -11 25 -5 0 -12 -4 -15 -10z"/>
<path d="M266 1081 c-4 -5 -2 -12 3 -16 6 -3 8 -12 4 -20 -3 -9 1 -15 11 -15
18 0 22 15 6 25 -6 4 -8 10 -5 15 3 5 1 11 -4 14 -5 4 -12 2 -15 -3z"/>
<path d="M2315 1060 c-3 -5 -1 -10 4 -10 6 0 11 5 11 10 0 6 -2 10 -4 10 -3 0
-8 -4 -11 -10z"/>
<path d="M2305 1031 c-6 -11 13 -26 22 -17 4 3 0 6 -8 6 -11 0 -11 2 1 10 9 6
10 10 3 10 -6 0 -14 -4 -18 -9z"/>
<path d="M330 870 c0 -5 5 -10 11 -10 5 0 7 5 4 10 -3 6 -8 10 -11 10 -2 0 -4
-4 -4 -10z"/>
<path d="M2235 823 c3 -3 0 -11 -5 -18 -7 -8 -5 -12 4 -12 14 0 16 22 3 32 -4
3 -5 2 -2 -2z"/>
<path d="M358 783 c7 -3 16 -2 19 1 4 3 -2 6 -13 5 -11 0 -14 -3 -6 -6z"/>
<path d="M905 299 c-6 -8 -4 -10 5 -4 10 6 12 4 6 -11 -6 -15 -5 -17 5 -6 9 9
10 15 2 23 -8 8 -13 7 -18 -2z"/>
<path d="M1668 289 c6 -9 8 -20 4 -25 -4 -4 2 -2 13 6 30 21 32 24 14 17 -9
-3 -23 0 -30 6 -11 10 -11 9 -1 -4z"/>
<path d="M1590 262 c0 -4 10 -9 22 -9 18 -2 20 0 8 7 -18 12 -30 13 -30 2z"/>
<path d="M1525 251 c-3 -5 -2 -12 3 -15 5 -3 9 1 9 9 0 17 -3 19 -12 6z"/>
<path d="M1250 220 c0 -5 5 -10 11 -10 5 0 7 5 4 10 -3 6 -8 10 -11 10 -2 0
-4 -4 -4 -10z"/>
</g>
</svg>
